{"title":"The Rig DvDRip.H264.Feel-Free","uid":5865062,"size":784536729,"categoryP":"video","categoryS":"movies","magnet":"?xt=urn:btih:ac2e7cf2a81f6294a36a8dd69e058c882750a9b8&amp;dn=The+Rig+DvDRip.H264.Feel-Free&amp;tr=udp%3A%2F%2Ftracker.openbittorrent.com%3A80&amp;tr=udp%3A%2F%2Fopen.demonii.com%3A1337&amp;tr=udp%3A%2F%2Ftracker.coppersurfer.tk%3A6969&amp;tr=udp%3A%2F%2Fexodus.desync.com%3A6969","seeders":0,"leechers":1,"uploader":"neon","files":-1,"time":1286129514,"description":"Plot:\nAs a hurricane rages outside, the small but experienced crew of an oil drilling rig settles in to ride out the storm. Isolated on the rig, their calm is short lived when a crew member goes missing and an extensive search proves futile. Slowly, they discover that a deadly creature is stalking the skeleton crew, eliminating them one by one. Surrounded by nothing but raging ocean, their communication severed and no way off the rig, the roughnecks try to survive the stormy night with an unrelenting force of death hunting them down\n\nGenre:Action | Sci-Fi | Thriller\nLanguage:English\n &lt;a href=&quot; http://www.imdb.com/title/tt1093906/&quot; rel=&quot;nofollow&quot; target=&quot;_NEW&quot;&gt; http://www.imdb.com/title/tt1093906/&lt;/a&gt;\nSource:DVDR NTSC\n\nGeneral\nComplete name :The.Rig.DvDRip.H264.Feel-Free\nFormat : MPEG-4\nFormat profile : Base Media\nCodec ID : isom\nFile size : 748 MiB\nDuration : 1h 34mn\nOverall bit rate : 1 109 Kbps\nVideo #2\nCodec ID : avc1\nCodec ID/Info : Advanced Video Coding\nDuration : 1h 34mn\nBit rate mode : Variable\nBit rate : 943 Kbps\nWidth : 640 pixels\nHeight : 352 pixels\nDisplay aspect ratio : 16:9\nFrame rate mode : Constant\nFrame rate : 23.976 fps\nOriginal frame rate : 23.000 fps\nResolution : 24 bits\nColorimetry : 4:2:0\nScan type : Progressive\nBits/(Pixel*Frame) : 0.175\nStream size : 635 MiB (85%)\nWriting library : ?\nAudio #1\nID : 1\nFormat : AAC\nFormat/Info : Advanced Audio Codec\nFormat version : Version 4\nFormat profile : LC\nFormat settings, SBR : No\nCodec ID : 40\nDuration : 1h 34mn\nBit rate mode : Constant\nBit rate : 160 Kbps\nChannel(s) : 2 channels\nChannel positions : L R\nSampling rate : 48.0 KHz\nResolution : 16 bits\nStream size : 108 MiB (14%)\n\n","torrent":{"xt":"urn:btih:ac2e7cf2a81f6294a36a8dd69e058c882750a9b8","amp;dn":"The+Rig+DvDRip.H264.Feel-Free","amp;tr":["udp%3A%2F%2Ftracker.openbittorrent.com%3A80","udp%3A%2F%2Fopen.demonii.com%3A1337","udp%3A%2F%2Ftracker.coppersurfer.tk%3A6969","udp%3A%2F%2Fexodus.desync.com%3A6969"],"infoHash":"ac2e7cf2a81f6294a36a8dd69e058c882750a9b8","infoHashBuffer":{"type":"Buffer","data":[172,46,124,242,168,31,98,148,163,106,141,214,158,5,140,136,39,80,169,184]},"announce":[],"urlList":[]}}